<?xml version="1.0" encoding="utf-8"?>
<!-- Generator: Adobe Illustrator 25.0.1, SVG Export Plug-In . SVG Version: 6.00 Build 0)  -->
<svg version="1.1" id="Layer_1" xmlns="http://www.w3.org/2000/svg" xmlns:xlink="http://www.w3.org/1999/xlink" x="0px" y="0px"
	 viewBox="0 0 512 512" style="enable-background:new 0 0 512 512;" xml:space="preserve">
<style type="text/css">
	.st0{fill:#5E7DBE;}
	.st1{fill:#B6C9E8;}
	.st2{fill:#A3BDE2;}
	.st3{fill:#C6E1FF;}
	.st4{fill:#FF9C67;}
</style>
<path class="st0" d="M356.1,284.2c0,10.1-0.3,20-1,29.9c-4.7,71.8-26.1,139.1-60.4,197.9L256,470.7L217.3,512
	c-11.4-19.5-21.3-39.9-29.7-61.1c-20.3-51.4-31.6-107.4-31.7-166v-0.7C155.9,176.6,193.4,77.8,256,0c25.1,31.1,46.1,65.7,62.4,102.8
	C342.6,158.3,356.1,219.7,356.1,284.2z"/>
<path class="st1" d="M356.1,284.2c0,10.1-0.3,20-1,29.9c-76,41.2-132.6,96.4-167.5,136.8c-20.3-51.4-31.6-107.4-31.7-166
	c91-69.8,139.1-139.6,162.4-182.1C342.6,158.3,356.1,219.7,356.1,284.2z"/>
<path class="st2" d="M329.7,284.2c0,15.5-0.8,30.9-2.5,46.1c-5.1,47.4-18.2,93.7-38.6,136.7L256,432.2L223.3,467
	c-5.9-12.4-11.2-25.2-15.9-38.1c-16.6-46.2-25.2-95.2-25.2-144.7c0-7,0.2-14,0.5-20.9c2-42.3,10.2-83.7,24.5-123.5
	c12.2-33.9,28.5-65.9,48.7-95.6c18.5,27.1,33.7,56.2,45.5,86.8c1.1,2.9,2.2,5.8,3.3,8.8C321.3,186,329.7,234.6,329.7,284.2z"/>
<path class="st3" d="M329.7,284.2c0,15.5-0.8,30.9-2.5,46.1c-49.9,31.1-90.1,67.3-119.8,98.6c-16.6-46.2-25.2-95.2-25.2-144.7
	c0-7,0.2-14,0.5-20.9c57.5-48.6,95.1-95.8,118.7-132.2c1.1,2.9,2.2,5.8,3.3,8.8C321.3,186,329.7,234.6,329.7,284.2z"/>
<path class="st4" d="M263.4,241c0,31.9-0.5,63.7-1.6,95.6c-0.2,5.1-0.4,10.2-0.6,15.3c-1.1,26.7-2.7,53.5-5.3,80.2
	c-2.3-23.8-3.8-47.7-4.9-71.5c-0.4-8-0.7-16-1-24c-1.1-31.9-1.6-63.7-1.6-95.6c0-22.9,0.3-45.8,0.8-68.6c0.2-9,0.5-17.9,0.8-26.9
	c1.2-31.9,2.7-63.7,5.8-95.6c3.1,31.9,4.7,63.7,5.8,95.6c0.1,4,0.3,8.1,0.4,12.1C263,185.4,263.4,213.2,263.4,241z"/>
</svg>
