<?xml version="1.0" encoding="utf-8"?>
<!-- Generator: Adobe Illustrator 25.0.1, SVG Export Plug-In . SVG Version: 6.00 Build 0)  -->
<svg version="1.1" id="Layer_1" xmlns="http://www.w3.org/2000/svg" xmlns:xlink="http://www.w3.org/1999/xlink" x="0px" y="0px"
	 viewBox="0 0 200.2 512" style="enable-background:new 0 0 200.2 512;" xml:space="preserve">
<style type="text/css">
	.st0{fill:#5E7DBE;}
	.st1{fill:#B6C9E8;}
	.st2{fill:#A3BDE2;}
	.st3{fill:#C6E1FF;}
	.st4{fill:#FF8967;}
</style>
<path class="st0" d="M200.2,284.2c0,10.1-0.3,20-1,29.9c-4.7,71.8-26.1,139.1-60.4,197.9l-38.7-41.3L61.3,512
	C50,492.5,40,472.1,31.7,450.9C11.3,399.5,0.1,343.5,0,284.9v-0.7C0,176.6,37.5,77.8,100.1,0c25.1,31.1,46.1,65.7,62.4,102.8
	C186.7,158.3,200.2,219.7,200.2,284.2z"/>
<path class="st1" d="M200.2,284.2c0,10.1-0.3,20-1,29.9c-76,41.2-132.6,96.4-167.5,136.8C11.3,399.5,0.1,343.5,0,284.9
	C91,215,139.1,145.3,162.4,102.8C186.7,158.3,200.2,219.7,200.2,284.2z"/>
<path class="st2" d="M173.8,284.2c0,15.5-0.8,30.9-2.5,46.1c-5.1,47.4-18.2,93.7-38.6,136.7l-32.7-34.9L67.4,467
	c-5.9-12.4-11.2-25.2-15.9-38.1C35,382.7,26.3,333.7,26.3,284.2c0-7,0.2-14,0.5-20.9c2-42.3,10.2-83.7,24.5-123.5
	c12.2-33.9,28.5-65.9,48.7-95.6c18.5,27.1,33.7,56.2,45.5,86.8c1.1,2.9,2.2,5.8,3.3,8.8C165.4,186,173.8,234.6,173.8,284.2z"/>
<path class="st3" d="M173.8,284.2c0,15.5-0.8,30.9-2.5,46.1c-49.9,31.1-90.1,67.3-119.8,98.6C35,382.7,26.3,333.7,26.3,284.2
	c0-7,0.2-14,0.5-20.9c57.5-48.6,95.1-95.8,118.7-132.2c1.1,2.9,2.2,5.8,3.3,8.8C165.4,186,173.8,234.6,173.8,284.2z"/>
<path class="st4" d="M107.5,241c0,31.9-0.5,63.7-1.6,95.6c-0.2,5.1-0.4,10.2-0.6,15.3c-1.1,26.7-2.7,53.5-5.3,80.2
	c-2.3-23.8-3.8-47.7-4.9-71.5c-0.4-8-0.7-16-1-24c-1.1-31.9-1.6-63.7-1.6-95.6c0-22.9,0.3-45.8,0.8-68.6c0.2-9,0.5-17.9,0.8-26.9
	c1.2-31.9,2.7-63.7,5.8-95.6c3.1,31.9,4.7,63.7,5.8,95.6c0.1,4,0.3,8.1,0.4,12.1C107.1,185.4,107.5,213.2,107.5,241z"/>
</svg>
